<svg width="860" height="110" viewBox="0 0 860 110" xmlns="http://www.w3.org/2000/svg">
  <rect width="860" height="110" fill="#0a0a0a" rx="6"/>

  <!-- Section label -->
  <line x1="32" y1="36" x2="48" y2="36" stroke="#555550" stroke-width="1"/>
  <text x="56" y="40" font-family="'IBM Plex Mono', monospace" font-size="10" fill="#555550" letter-spacing="0.12em">TECH</text>

  <!-- Pills row 1 -->
  <!-- Python -->
  <rect x="32" y="54" width="66" height="24" rx="3" fill="#111" stroke="#c8ff00" stroke-opacity="0.25" stroke-width="1"/>
  <text x="65" y="70" font-family="'IBM Plex Mono', monospace" font-size="11" fill="#c8e88a" text-anchor="middle">Python</text>

  <!-- TypeScript -->
  <rect x="108" y="54" width="90" height="24" rx="3" fill="#111" stroke="#c8ff00" stroke-opacity="0.25" stroke-width="1"/>
  <text x="153" y="70" font-family="'IBM Plex Mono', monospace" font-size="11" fill="#c8e88a" text-anchor="middle">TypeScript</text>

  <!-- FastAPI -->
  <rect x="208" y="54" width="68" height="24" rx="3" fill="#111" stroke="#c8ff00" stroke-opacity="0.25" stroke-width="1"/>
  <text x="242" y="70" font-family="'IBM Plex Mono', monospace" font-size="11" fill="#c8e88a" text-anchor="middle">FastAPI</text>

  <!-- PostgreSQL -->
  <rect x="286" y="54" width="92" height="24" rx="3" fill="#111" stroke="#ffffff" stroke-opacity="0.08" stroke-width="1"/>
  <text x="332" y="70" font-family="'IBM Plex Mono', monospace" font-size="11" fill="#666660" text-anchor="middle">PostgreSQL</text>

  <!-- Supabase -->
  <rect x="388" y="54" width="78" height="24" rx="3" fill="#111" stroke="#ffffff" stroke-opacity="0.08" stroke-width="1"/>
  <text x="427" y="70" font-family="'IBM Plex Mono', monospace" font-size="11" fill="#666660" text-anchor="middle">Supabase</text>

  <!-- Redis -->
  <rect x="476" y="54" width="58" height="24" rx="3" fill="#111" stroke="#ffffff" stroke-opacity="0.08" stroke-width="1"/>
  <text x="505" y="70" font-family="'IBM Plex Mono', monospace" font-size="11" fill="#666660" text-anchor="middle">Redis</text>

  <!-- LangGraph -->
  <rect x="544" y="54" width="86" height="24" rx="3" fill="#111" stroke="#ffffff" stroke-opacity="0.08" stroke-width="1"/>
  <text x="587" y="70" font-family="'IBM Plex Mono', monospace" font-size="11" fill="#666660" text-anchor="middle">LangGraph</text>

  <!-- CrewAI -->
  <rect x="640" y="54" width="64" height="24" rx="3" fill="#111" stroke="#ffffff" stroke-opacity="0.08" stroke-width="1"/>
  <text x="672" y="70" font-family="'IBM Plex Mono', monospace" font-size="11" fill="#666660" text-anchor="middle">CrewAI</text>

  <!-- Docker -->
  <rect x="714" y="54" width="64" height="24" rx="3" fill="#111" stroke="#ffffff" stroke-opacity="0.08" stroke-width="1"/>
  <text x="746" y="70" font-family="'IBM Plex Mono', monospace" font-size="11" fill="#666660" text-anchor="middle">Docker</text>
</svg>
